<svg version="1.1" xmlns="http://www.w3.org/2000/svg" x="0" y="0" width="36" height="36" viewBox="0 0 36 36" enable-background="new 0 0 36 36" xml:space="preserve"><path fill="#FFFFFF" d="M25.03 23.58c-0.78 0-1.41-0.65-1.41-1.45v-8.18c0-0.81 0.63-1.46 1.41-1.46v0.7 0.7l-0.05 0.06v8.19l0.05 0.05 0.05-0.05v-8.18l-0.05-0.05v-0.7 -0.7c0.79 0 1.42 0.66 1.42 1.46v8.19C26.44 22.93 25.81 23.58 25.03 23.58M29.8 27.61c-0.78 0-1.42-0.65-1.42-1.45V9.92c0-0.8 0.63-1.45 1.42-1.45v0.7 0.7l-0.05 0.05v16.24l0.05 0.06 0.06-0.06V9.92l-0.06-0.05V9.16v-0.7c0.78 0 1.41 0.65 1.42 1.45v16.24C31.22 26.97 30.58 27.61 29.8 27.61M34.58 31.65c-0.79-0.01-1.41-0.65-1.41-1.46V5.89c0-0.81 0.64-1.46 1.42-1.46v0.7 0.7l-0.05 0.06v24.3l0.05 0.06 0.06-0.06V5.89l-0.05-0.06V5.13 4.43c0.78 0 1.42 0.65 1.42 1.46v24.3C36 30.99 35.37 31.64 34.58 31.65M1.82 13.03c-0.07 0.12-0.12 0.27-0.12 0.42v9.17c0 0.15 0.04 0.28 0.11 0.4L1.82 13.03M3.18 14.15l-0.01 7.77 5.88 0.01 0.11 0.04 0.55 0.19 9.02 7V6.92l-9.02 7 -0.11 0.04 -0.55 0.19H3.18M19.41 30.56L19.41 30.56l0.41-0.56L19.41 30.56M2.08 23.32c0.12 0.07 0.26 0.12 0.41 0.12h6.42l11.11 8.61 0.15 0.05h0l0.02-0.03V4l-0.03-0.05 -0.02-0.01 -0.03 0.01L8.92 12.63H2.49c-0.14 0-0.28 0.04-0.4 0.11h6.73l0.24-0.08 11.03-8.56v26.45 1.41L9.06 23.41l-0.24-0.08L2.08 23.32M20.48 32.75L20.48 32.75M20.11 33.56l-0.18-0.06 -0.55-0.19L8.46 24.84H2.49c-1.19 0-2.16-0.99-2.16-2.22v-9.17c0-1.22 0.97-2.22 2.16-2.22h5.97l10.83-8.4c0.25-0.2 0.55-0.29 0.85-0.29h0.01 0c0.22 0 0.43 0.05 0.64 0.15l-0.3 0.63 0.31-0.63c0.48 0.25 0.78 0.75 0.79 1.3v28.08c0 0.55-0.31 1.06-0.78 1.3l-0.08 0.04 -0.08 0.02L20.11 33.56"/></svg>