<svg version="1.1" xmlns="http://www.w3.org/2000/svg" x="0" y="0" width="43.4" height="40.7" viewBox="0 0 43.4 40.7" enable-background="new 0 0 43.36 40.684" xml:space="preserve"><polyline fill="#FFFFFF" points="19.4 30.6 19.4 30.6 19.8 30 19.4 30.6 "/><line fill="#FFFFFF" x1="20.5" y1="32.8" x2="20.5" y2="32.8"/><path fill="#FFFFFF" d="M23.4 2.7l-0.3 0.7 0.3-0.7c-0.2-0.1-0.5-0.2-0.7-0.2h0H22.7c-0.3 0-0.7 0.1-1 0.3L9.5 12.4H2.8c-1.3 0-2.4 1.1-2.4 2.5v10.4c0 1.4 1.1 2.5 2.4 2.5h6.7l12.3 9.6 0.6 0.2 0.2 0.1 0.6-0.1 0.1 0 0.1 0c0.5-0.3 0.9-0.8 0.9-1.5V4.2C24.3 3.6 24 3 23.4 2.7zM2 25.7c-0.1-0.1-0.1-0.3-0.1-0.5V14.9c0-0.2 0-0.3 0.1-0.5L2 25.7zM22.8 35.9l0 0h0l-0.2-0.1 -12.5-9.7H2.8c-0.2 0-0.3 0-0.5-0.1l7.6 0 0.3 0.1 12.5 9.7v-1.6V4.3L10.2 14l-0.3 0.1H2.3c0.1-0.1 0.3-0.1 0.4-0.1h7.3l12.6-9.8 0 0 0 0 0 0.1V35.9zM10.2 15.7l0.6-0.2 0.1 0 10.2-7.9v25.1l-10.2-7.9 -0.6-0.2 -0.1 0 -6.6 0 0-8.8v0L10.2 15.7 10.2 15.7zM38.2 18.1l4.2-4.5c0.7-0.8 0.7-2.1 0-2.9 -0.7-0.8-2-0.8-2.7 0l-4.2 4.5 -4.2-4.5c-0.7-0.8-2-0.8-2.7 0 -0.7 0.8-0.7 2.1 0 2.9l4.2 4.5 -4.2 4.5c-0.7 0.8-0.7 2.1 0 2.9 0.5 0.5 1 0.5 1.5 0.5 0.5 0 1-0.3 1.5-0.5l4.2-4.5 4.2 4.5c0.5 0.5 1 0.5 1.5 0.5 0.5 0 1-0.3 1.5-0.5 0.7-0.8 0.7-2.1 0-2.9L38.2 18.1z"/></svg>