<svg version="1.1" xmlns="http://www.w3.org/2000/svg" x="0" y="0" width="36" height="36" viewBox="0 0 36 36" enable-background="new 0 0 36 36" xml:space="preserve"><path fill="#FFFFFF" d="M18 7.3c-5.8 0-10.6 4.8-10.6 10.6 0 5.8 4.8 10.6 10.6 10.6 5.8 0 10.6-4.8 10.6-10.6C28.7 12 23.8 7.3 18 7.3M18 34.8c-0.8 0-1.4 0-2.1-0.2 0-0.8-0.2-1.7-0.2-2.5 0-0.4-0.4-0.8-0.8-1 -1.4-0.4-2.9-1-4.1-1.7 -0.2 0-0.4-0.2-0.6-0.2 -0.2 0-0.6 0-0.8 0.2 -0.8 0.6-1.4 1.2-1.9 1.7 -1.2-1-2.1-1.9-3.1-3.1 0.6-0.6 1.2-1.2 1.7-1.9 0.4-0.4 0.4-1 0.2-1.2 -0.8-1.2-1.4-2.7-1.7-4.1 -0.2-0.4-0.6-0.8-1-0.8 -1 0-1.7 0-2.5-0.2C1.2 19.1 1 18.4 1 17.8c0-0.8 0-1.5 0.2-2.1 0.8 0 1.7-0.2 2.5-0.2 0.4 0 0.8-0.4 1-0.8 0.4-1.4 1-2.9 1.7-4.1 0.2-0.4 0.2-1-0.2-1.2 -0.6-0.8-1.2-1.4-1.7-1.9 1-1.2 1.9-2.1 3.1-3.1 0.6 0.6 1.2 1.2 1.9 1.7 0.2 0.2 0.4 0.2 0.8 0.2 0.2 0 0.4 0 0.6-0.2 1.4-0.8 2.7-1.4 4.1-1.7 0.4-0.2 0.8-0.6 0.8-1 0-1 0-1.7 0.2-2.5 0.6 0 1.4-0.2 1.9-0.2 0.8 0 1.5 0 2.5 0.2 0 0.8 0.2 1.7 0.2 2.5 0 0.4 0.4 0.8 0.8 1 1.4 0.4 2.7 1 4.1 1.7 0.2 0 0.4 0.2 0.6 0.2s0.6 0 0.8-0.2c0.8-0.6 1.4-1.2 1.9-1.7 1.2 1 2.1 1.9 3.1 3.1 -0.6 0.6-1.2 1.2-1.7 1.9 -0.4 0.4-0.4 1-0.2 1.2 0.8 1.2 1.4 2.7 1.7 4.1 0.2 0.4 0.6 0.8 1 0.8 0.8 0 1.5 0 2.1 0 0.2 0 0.4 0 0.4 0 0 0.8 0.2 1.5 0.2 2.1 0 0.8 0 1.5-0.2 2.1 -0.8 0-1.7 0.2-2.5 0.2 -0.4 0-0.8 0.4-1 0.8 -0.4 1.4-1 2.9-1.7 4.1 -0.2 0.4-0.2 1 0.2 1.2 0.6 0.8 1.2 1.4 1.7 1.9 -1 1.2-1.9 2.1-3.1 3.1 -0.6-0.6-1.2-1.2-1.9-1.7C26.5 29 26.3 29 25.9 29c-0.2 0-0.4 0-0.6 0.2 -1.2 0.8-2.7 1.4-4.1 1.7 -0.4 0.2-0.8 0.6-0.8 1 0 1 0 1.7-0.2 2.5C19.6 34.8 18.8 34.8 18 34.8"/><circle fill="#FFFFFF" cx="18" cy="17.8" r="6.2"/></svg>