<svg version="1.1" xmlns="http://www.w3.org/2000/svg" x="0" y="0" width="36" height="36" viewBox="0 0 36 36" enable-background="new 0 0 36 36" xml:space="preserve"><path fill="#FFFFFF" d="M23.3 11.2c0.8-0.8 2-0.8 2.8 0 0.4 0.4 0.6 0.9 0.6 1.4 0 0.5-0.2 1-0.6 1.4l-6.5 6.5c-0.4 0.4-0.9 0.6-1.5 0.6 -0.6 0-1.1-0.2-1.5-0.6l-6.5-6.5c-0.8-0.8-0.8-2 0-2.8 0.8-0.8 2-0.8 2.8 0l5.2 5.2L23.3 11.2zM18.1 21.4l-5.2 5.2c-0.8 0.8-2 0.8-2.8 0 -0.8-0.8-0.8-2 0-2.8l6.5-6.5c0.4-0.4 0.9-0.6 1.5-0.6 0.6 0 1.1 0.2 1.5 0.6l6.5 6.5c0.4 0.4 0.6 0.9 0.6 1.4 0 0.5-0.2 1-0.6 1.4 -0.8 0.8-2 0.8-2.8 0L18.1 21.4z"/></svg>