<?xml version="1.0" encoding="utf-8"?>
<!-- Generator: Adobe Illustrator 16.0.0, SVG Export Plug-In . SVG Version: 6.00 Build 0)  -->
<!DOCTYPE svg PUBLIC "-//W3C//DTD SVG 1.1//EN" "http://www.w3.org/Graphics/SVG/1.1/DTD/svg11.dtd">
<svg version="1.1" id="Layer_1" xmlns="http://www.w3.org/2000/svg" xmlns:xlink="http://www.w3.org/1999/xlink" x="0px" y="0px"
	 width="51.75px" height="52.375px" viewBox="0 0 51.75 52.375" enable-background="new 0 0 51.75 52.375" xml:space="preserve">
<path fill-rule="evenodd" clip-rule="evenodd" fill="#FFFFFF" d="M24.565,36.148c-0.457,2.506-0.913,5.012-1.411,7.75
	c-0.281-0.266-0.544-0.416-0.661-0.641c-0.692-1.342-1.381-2.688-2.009-4.06c-0.463-1.013,0.035-1.978,0.397-2.883
	c0.489-1.22,1.167-2.363,1.695-3.569c0.311-0.709,0.484-1.477,0.729-2.215c0.049-0.148,0.144-0.283,0.299-0.396
	c0.452,2.781-1.6,5.009-1.846,7.628c0.125,0.04,0.251,0.081,0.376,0.122c0.267-0.711,0.517-1.43,0.805-2.133
	c0.58-1.412,1.174-2.82,1.783-4.221c0.068-0.158,0.273-0.256,0.415-0.381c0.125,0.146,0.25,0.295,0.377,0.441
	c0.333,0.387,0.685,0.758,0.994,1.162c0.179,0.232,0.301,0.514,0.429,0.781c0.205,0.425,0.393,0.857,0.587,1.287
	c0.153-0.055,0.306-0.109,0.458-0.164c-0.34-1.22-0.679-2.439-1.019-3.658c0.995,0.644,1.241,1.672,1.507,2.724
	c0.458-0.729,0.458-0.729-0.615-4.275c0.28,0.307,0.57,0.604,0.84,0.921c1.289,1.518,2.008,3.314,2.775,5.138
	c0.826,1.962,0.569,3.565-0.432,5.298c-0.881,1.521-1.617,3.129-2.375,4.719c-0.713,1.498-1.364,3.023-2.059,4.529
	c-0.09,0.199-0.271,0.355-0.411,0.531c-0.17-0.178-0.374-0.334-0.503-0.539c-0.209-0.33-0.326-0.725-0.56-1.033
	c-1.098-1.443-0.51-3-0.344-4.529c0.02-0.182,0.118-0.377,0.075-0.537c-0.366-1.37,0.182-2.607,0.513-3.883
	c0.357-1.375-0.068-2.649-0.488-3.915C24.78,36.148,24.672,36.148,24.565,36.148z"/>
<path fill-rule="evenodd" clip-rule="evenodd" fill="#FFFFFF" d="M48.226,2.682c-0.105,0.389-0.131,0.6-0.217,0.782
	c-1.831,3.887-3.667,7.771-5.514,11.65c-0.08,0.168-0.259,0.374-0.422,0.405c-1.464,0.285-2.935,0.529-4.401,0.796
	c-1.323,0.241-2.643,0.501-3.967,0.74c-0.197,0.036-0.404,0.005-0.798,0.005c0.395-0.861,0.741-1.617,1.094-2.385
	c1.549-0.542,2.851-1.566,4.093-2.684c0.906-0.816,1.752-1.718,2.746-2.408c0.578-0.401,1.396-0.636,2.104-0.634
	c1.643,0.004,2.381-0.881,2.727-2.683c-3.377,1.726-6.596,3.372-10.016,5.121c0.841-1.911,1.467-3.573,2.307-5.12
	c0.297-0.548,1.061-0.963,1.699-1.183c2.279-0.785,4.592-1.474,6.902-2.166C47.039,2.777,47.559,2.773,48.226,2.682z"/>
<path fill-rule="evenodd" clip-rule="evenodd" fill="#FFFFFF" d="M7.712,9.141c1.904,0.524,3.573,0.725,4.974,1.446
	c1.312,0.676,2.883,1.127,3.695,2.653c0.298,0.561,1.105,0.827,1.554,1.338c0.375,0.427,0.566,1.014,0.886,1.62
	c-1.542,0.261-2.954,0.483-4.413-0.151c-1.413-0.614-2.922-1.002-4.344-1.599c-0.512-0.214-1.062-0.661-1.303-1.147
	c-1.305-2.639-2.512-5.326-3.767-7.99C4.667,4.613,4.291,3.936,3.811,3.007c1.167,0.263,2.07,0.426,2.95,0.674
	c1.945,0.55,3.876,1.145,5.814,1.717c0.743,0.219,1.402,0.423,1.749,1.302c0.641,1.623,1.45,3.179,2.216,4.821
	c-0.25,0-0.504,0.081-0.634-0.013c-1.09-0.789-2.154-1.616-3.235-2.418c-0.314-0.233-0.614-0.636-1.069-0.161
	c-0.087,0.091-0.337,0.057-0.506,0.036c-0.853-0.102-1.703-0.25-2.558-0.307C8.321,8.646,8.088,8.912,7.712,9.141z"/>
<path fill-rule="evenodd" clip-rule="evenodd" fill="#FFFFFF" d="M30.787,23.09c0.932-1.203,2.179-1.07,3.343-0.856
	c1.523,0.28,3.013,0.746,4.653,1.167c-0.312,0.7-0.617,1.406-0.943,2.103c-0.845,1.805-1.691,3.607-2.551,5.406
	c-0.581,1.219-1.176,2.432-1.787,3.636c-0.096,0.188-0.331,0.462-0.465,0.441c-0.214-0.031-0.5-0.236-0.575-0.437
	c-0.647-1.709-1.261-3.431-1.871-5.154c-0.171-0.481-0.241-1.005-0.454-1.465c-0.339-0.734-0.198-1.12,0.732-1.27
	c-0.281-0.17-0.602-0.299-0.834-0.521c-0.26-0.25-0.482-0.564-0.633-0.893c-0.052-0.116,0.123-0.402,0.268-0.516
	c0.086-0.066,0.321,0.041,0.481,0.094c0.239,0.08,0.479,0.277,0.704,0.258c1.586-0.146,2.812,0.719,4.135,1.357
	c0.401,0.194,0.937,0.111,1.41,0.155c-0.275-0.298-0.497-0.692-0.834-0.879c-1.358-0.751-2.754-1.435-4.129-2.156
	C31.211,23.444,31.02,23.262,30.787,23.09z"/>
<path fill-rule="evenodd" clip-rule="evenodd" fill="#FFFFFF" d="M23.371,25.688c-0.353,0.77-0.695,1.529-1.05,2.283
	c-0.141,0.299-0.376,0.568-0.455,0.881c-0.45,1.775-1.939,2.67-3.176,3.77c-0.33,0.294-0.67,0.297-0.907-0.248
	c-0.333-0.766-0.78-1.48-1.171-2.221c-0.616-1.164-0.609-1.02,0.408-2.143c0.585-0.645,1.62-0.955,1.458-2.129
	c-0.017-0.126,0.254-0.311,0.416-0.438c0.706-0.549,1.431-1.072,2.127-1.633c0.68-0.546,1.169,0.088,1.546,0.374
	C22.962,24.484,23.094,25.131,23.371,25.688z"/>
<path fill-rule="evenodd" clip-rule="evenodd" fill="#FFFFFF" d="M11.098,23.304c2.528-0.423,4.825-0.787,7.113-1.202
	c0.837-0.152,1.234,0.338,1.347,0.964c0.061,0.335-0.262,0.85-0.561,1.113c-0.461,0.405-1.009,0.734-1.726,0.434
	c-0.187-0.077-0.555,0.137-0.773,0.305c-0.973,0.746-1.91,1.539-2.895,2.268c-0.126,0.094-0.599-0.018-0.673-0.159
	C12.317,25.861,11.758,24.666,11.098,23.304z"/>
<path fill-rule="evenodd" clip-rule="evenodd" fill="#FFFFFF" d="M17.538,21.06c-2.714,0.482-5.291,0.939-7.963,1.414
	C9.218,21.731,8.834,21,8.538,20.235c-0.042-0.108,0.342-0.555,0.519-0.549c2.228,0.071,4.455,0.18,6.679,0.323
	c0.494,0.032,0.987,0.21,1.457,0.383C17.322,20.439,17.367,20.714,17.538,21.06z"/>
<path fill-rule="evenodd" clip-rule="evenodd" fill="#FFFFFF" d="M17.449,17.95c0,0.318,0,0.729,0,1.315
	c-1.05-0.094-2.021-0.209-2.995-0.26c-1.514-0.079-3.03-0.092-4.542-0.189c-0.245-0.016-0.472-0.32-0.707-0.492
	c0.191-0.184,0.356-0.484,0.577-0.533c1.249-0.277,2.503-0.599,3.771-0.695c0.77-0.058,1.571,0.247,2.351,0.418
	C16.396,17.623,16.876,17.786,17.449,17.95z"/>
<path fill-rule="evenodd" clip-rule="evenodd" fill="#FFFFFF" d="M42.476,19.908c0.019,0.258,0.03,0.292,0.021,0.314
	c-0.989,2.27-0.711,2.366-3.533,1.689c-1.484-0.355-3-0.576-4.496-0.887c-0.206-0.043-0.378-0.252-0.566-0.384
	c0.207-0.109,0.41-0.303,0.621-0.313c1.449-0.069,2.9-0.079,4.35-0.15C40.064,20.119,41.254,20.002,42.476,19.908z"/>
<path fill-rule="evenodd" clip-rule="evenodd" fill="#FFFFFF" d="M39.069,17.129c1.204-0.191,2.347-0.373,3.515-0.559
	c-0.016,1.64-0.942,2.616-2.329,2.625c-1.333,0.009-2.666,0.036-3.999,0.046c-0.314,0.002-0.629-0.03-0.947-0.223
	c0.893-0.278,1.77-0.66,2.683-0.8C38.725,18.106,39.072,17.826,39.069,17.129z"/>
<path fill-rule="evenodd" clip-rule="evenodd" fill="#FFFFFF" d="M19.594,34.891c-0.125,0.4-0.238,0.791-0.372,1.176
	c-0.127,0.364-0.277,0.721-0.434,1.127c-0.655,0.021-0.871-0.42-0.881-0.954C17.896,35.648,18.942,34.82,19.594,34.891z"/>
<path fill-rule="evenodd" clip-rule="evenodd" fill="#FFFFFF" d="M23.931,27.315c0.188-0.756,0.325-1.31,0.467-1.882
	C25.286,25.857,25.202,26.269,23.931,27.315z"/>
<path fill-rule="evenodd" clip-rule="evenodd" fill="#FFFFFF" d="M28.258,26.363c0.237,0.591,0.426,1.059,0.645,1.604
	C27.531,27.547,27.415,27.299,28.258,26.363z"/>
</svg>
