<?xml version="1.0" encoding="utf-8"?>
<!-- Generator: Adobe Illustrator 16.0.0, SVG Export Plug-In . SVG Version: 6.00 Build 0)  -->
<!DOCTYPE svg PUBLIC "-//W3C//DTD SVG 1.1//EN" "http://www.w3.org/Graphics/SVG/1.1/DTD/svg11.dtd">
<svg version="1.1" id="Layer_1" xmlns="http://www.w3.org/2000/svg" xmlns:xlink="http://www.w3.org/1999/xlink" x="0px" y="0px"
	 width="220.5px" height="47px" viewBox="1.625 2.188 220.5 47" enable-background="new 1.625 2.188 220.5 47" xml:space="preserve"
	>
<path fill-rule="evenodd" clip-rule="evenodd" fill="#FFFFFF" d="M219.131,18.431c-2.402,0-4.804,0-7.244,0c0-1.785,0-3.528,0-5.303
	c-3.785,0-7.532,0-11.308,0c0,2.936,0,5.862,0,8.828c2.702,0,5.384,0,8.108,0c0.02,0.181,0.049,0.329,0.049,0.478
	c0.004,1.904-0.004,3.808,0.009,5.711c0.003,0.319-0.089,0.412-0.412,0.41c-2.419-0.014-4.837-0.008-7.256-0.008
	c-0.153,0-0.307,0-0.491,0c0,3.342,0,6.654,0,10.04c0.338,0,0.69-0.001,1.043,0c0.36,0.001,0.722-0.015,1.08,0.014
	c0.096,0.008,0.258,0.149,0.258,0.23c0.015,2.083,0.012,4.165,0.012,6.28c-4.896,0-9.762,0-14.641,0c0-2.161,0-4.324,0-6.52
	c0.779,0,1.521,0,2.293,0c0-8.501,0-16.97,0-25.479c-1.77,0-3.538,0-5.352,0c-0.008-0.173-0.02-0.309-0.02-0.444
	c-0.002-1.878-0.001-3.757-0.001-5.635c0-0.521,0-0.522,0.528-0.522c10.691,0,21.383,0,32.074,0.001c0.423,0,0.846,0.02,1.27,0.031
	C219.131,10.505,219.131,14.468,219.131,18.431z"/>
<path fill-rule="evenodd" clip-rule="evenodd" fill="#FFFFFF" d="M145.445,45.146c-0.01-0.155-0.021-0.256-0.021-0.355
	c-0.001-1.918,0.004-3.834-0.006-5.751c-0.002-0.336,0.082-0.468,0.455-0.462c1.608,0.021,3.217,0.009,4.824,0.009
	c0.141,0,0.282,0,0.457,0c0-8.492,0-16.961,0-25.473c-0.131-0.006-0.266-0.017-0.401-0.018c-1.647-0.001-3.294-0.009-4.94,0.005
	c-0.311,0.003-0.396-0.098-0.395-0.398c0.01-1.942,0.011-3.885,0-5.828c-0.002-0.289,0.09-0.379,0.373-0.378
	c6.702,0.011,13.404,0.008,20.107,0.025c2.72,0.007,5.412,0.266,8.029,1.062c3.753,1.142,6.656,3.43,8.865,6.631
	c1.74,2.521,2.738,5.329,3.15,8.355c0.484,3.555,0.239,7.052-0.868,10.473c-0.938,2.899-2.452,5.455-4.676,7.556
	c-2.3,2.171-5.03,3.548-8.13,4.129c-1.306,0.244-2.649,0.392-3.977,0.398c-7.5,0.037-15.001,0.019-22.501,0.02
	C145.69,45.146,145.589,45.146,145.445,45.146z M161.129,38.646c1.902-0.063,3.766-0.077,5.623-0.202
	c1.41-0.096,2.744-0.547,3.977-1.254c2.288-1.311,3.642-3.338,4.4-5.809c0.642-2.09,0.787-4.236,0.705-6.407
	c-0.062-1.665-0.302-3.299-0.844-4.878c-1.254-3.656-3.748-5.926-7.551-6.719c-2.061-0.43-4.148-0.254-6.228-0.265
	c-0.021,0-0.042,0.024-0.083,0.05C161.129,21.61,161.129,30.07,161.129,38.646z"/>
<path fill-rule="evenodd" clip-rule="evenodd" fill="#FFFFFF" d="M39.342,32.66c0,4.232,0,8.447,0,12.691
	c-11.457,0-22.898,0-34.368,0c0-2.324,0-4.634,0-6.99c1.486,0,2.971,0,4.479,0c0-8.361,0-16.678,0-25.035c-1.486,0-2.959,0-4.469,0
	c0-2.348,0-4.655,0-6.993c11.435,0,22.877,0,34.354,0c0.009,0.13,0.024,0.254,0.024,0.377c0,3.95-0.005,7.9,0.008,11.85
	c0.001,0.363-0.11,0.449-0.457,0.447C36.597,18.994,34.281,19,31.965,19c-0.126,0-0.252,0-0.413,0c0-1.897,0-3.757,0-5.65
	c-3.845,0-7.655,0-11.489,0c0,2.771,0,5.53,0,8.333c3.2,0,6.383,0,9.597,0c0,2.363,0,4.681,0,7.046c-3.202,0-6.386,0-9.595,0
	c0,3.218,0,6.389,0,9.592c3.814,0,7.625,0,11.465,0c0-1.882,0-3.756,0-5.661C34.135,32.66,36.711,32.66,39.342,32.66z"/>
<path fill-rule="evenodd" clip-rule="evenodd" fill="#FFFFFF" d="M99.812,45.367c-5.554,0-11.07,0-16.633,0
	c-0.01-0.145-0.028-0.28-0.029-0.415c-0.002-1.956,0.006-3.911-0.008-5.867c-0.002-0.314,0.107-0.39,0.4-0.386
	c1.017,0.014,2.033,0.006,3.05,0.006c0.139,0,0.277,0,0.442,0c0-4.679,0-9.317,0-13.985c-3.043,0-6.084,0-9.174,0
	c0,0.151,0,0.289,0,0.426c0,3.756-0.004,7.514,0.006,11.271c0.001,0.408,0.047,0.823,0.129,1.224
	c0.131,0.633,0.409,0.852,1.049,0.95c1.059,0.161,2.072-0.022,3.069-0.368c0.157-0.054,0.318-0.1,0.479-0.146
	c0.02-0.006,0.047,0.01,0.105,0.023c0,0.105,0,0.219,0,0.332c0,1.852-0.005,3.705,0.008,5.558c0.001,0.257-0.072,0.384-0.316,0.483
	c-2.281,0.922-4.638,1.428-7.109,1.281c-1.488-0.088-2.892-0.477-4.119-1.354c-1.758-1.256-2.475-3.043-2.483-5.135
	c-0.02-4.684-0.007-9.367-0.007-14.051c0-0.154,0-0.308,0-0.508c-1.131,0-2.242,0-3.38,0c0-2.252,0-4.458,0-6.71
	c1.113,0,2.226,0,3.38,0c0-0.66,0-1.273,0-1.887c0-0.643-0.011-1.287,0.01-1.929c0.004-0.14,0.085-0.329,0.193-0.406
	c2.926-2.078,5.857-4.144,8.79-6.212c0.04-0.028,0.085-0.049,0.18-0.104c0,3.514,0,6.989,0,10.527c0.205,0,0.366,0,0.526,0
	c5.803,0,11.605,0.004,17.408-0.01c0.398-0.001,0.488,0.103,0.487,0.491c-0.013,6.574-0.009,13.149-0.009,19.724
	c0,0.513-0.002,0.513,0.526,0.513c0.849,0,1.698,0,2.548,0c0.151,0,0.304,0,0.48,0C99.812,40.941,99.812,43.133,99.812,45.367z"/>
<path fill-rule="evenodd" clip-rule="evenodd" fill="#FFFFFF" d="M131.692,46.005c-2.572,0.005-5.03-0.494-7.315-1.71
	c-3.17-1.684-5.266-4.27-6.298-7.691c-0.982-3.258-1.003-6.547-0.016-9.804c1.257-4.145,3.979-6.982,8.036-8.433
	c4.428-1.583,8.824-1.39,13.04,0.767c3.304,1.69,5.403,4.431,6.372,7.989c0.938,3.436,0.877,6.885-0.389,10.232
	c-1.691,4.474-4.984,7.169-9.607,8.23c-1.244,0.285-2.537,0.355-3.807,0.525C131.703,46.076,131.697,46.041,131.692,46.005z
	 M136.809,31.849c-0.004-1.298-0.102-2.435-0.434-3.54c-0.388-1.289-1.01-2.425-2.201-3.144c-2.568-1.553-5.73-0.416-6.832,2.457
	c-0.617,1.613-0.739,3.297-0.648,5.004c0.068,1.307,0.307,2.574,0.928,3.744c0.867,1.633,2.23,2.497,4.076,2.502
	c1.885,0.004,3.298-0.84,4.17-2.536C136.617,34.878,136.783,33.303,136.809,31.849z"/>
<path fill-rule="evenodd" clip-rule="evenodd" fill="#FFFFFF" d="M48.269,44.416c0,0.314,0,0.607,0,0.934c-2.253,0-4.48,0-6.733,0
	c0-3.227,0-6.447,0-9.689c2.24,0,4.46,0,6.708,0c0.024,0.244,0.036,0.486,0.075,0.723c0.235,1.403,1.188,2.245,2.386,2.773
	c1.815,0.803,3.716,0.833,5.615,0.267c0.547-0.163,1.035-0.452,1.404-0.909c0.652-0.809,0.497-1.881-0.372-2.443
	c-0.841-0.543-1.811-0.707-2.77-0.887c-1.83-0.344-3.676-0.615-5.49-1.021c-2.36-0.529-4.543-1.465-6.342-3.155
	c-3.025-2.841-2.99-7.824,0.068-10.639c1.672-1.538,3.67-2.336,5.887-2.627c2.816-0.371,5.561-0.013,8.23,0.941
	c0.069,0.024,0.141,0.042,0.203,0.06c0.029-0.04,0.055-0.058,0.057-0.079c0.06-0.676,0.059-0.676,0.766-0.676
	c1.801,0,3.602,0,5.402,0c0.139,0,0.277,0,0.443,0c0,2.776,0,5.509,0,8.271c-2.178,0-4.344,0-6.534,0
	c-0.402-1.569-1.599-2.207-3.047-2.509c-1.408-0.294-2.834-0.395-4.243-0.056c-0.484,0.116-0.975,0.359-1.365,0.667
	c-0.725,0.574-0.61,1.409,0.203,1.847c0.967,0.52,2.04,0.682,3.102,0.871c2.363,0.42,4.75,0.725,7.047,1.463
	c1.315,0.423,2.575,0.964,3.689,1.797c1.706,1.275,2.694,2.97,2.931,5.092c0.232,2.087-0.062,4.082-1.127,5.916
	c-1.246,2.146-3.183,3.371-5.52,4.033c-1.727,0.49-3.493,0.575-5.273,0.496c-1.3-0.057-2.597-0.171-3.817-0.664
	C49.322,44.996,48.826,44.699,48.269,44.416z"/>
<path fill-rule="evenodd" clip-rule="evenodd" fill="#FFFFFF" d="M100.191,6.322c4.442,0,8.852,0,13.309,0
	c0,10.792,0,21.565,0,32.375c1.306,0,2.562,0,3.848,0c0,2.229,0,4.423,0,6.65c-5.702,0-11.417,0-17.155,0c0-2.194,0-4.389,0-6.632
	c1.36,0,2.716,0,4.103,0c0-8.595,0-17.14,0-25.731c-1.367,0-2.725,0-4.104,0C100.191,10.744,100.191,8.55,100.191,6.322z"/>
<path fill-rule="evenodd" clip-rule="evenodd" fill="#FFFFFF" d="M91.822,6.441c2.59-0.006,4.672,2.04,4.732,4.547
	c0.063,2.65-2.029,4.875-4.729,4.877c-2.643,0.002-4.701-2.087-4.699-4.774C87.129,8.485,89.187,6.447,91.822,6.441z"/>
</svg>
