<?xml version="1.0" encoding="utf-8"?>
<!-- Generator: Adobe Illustrator 16.0.0, SVG Export Plug-In . SVG Version: 6.00 Build 0)  -->
<!DOCTYPE svg PUBLIC "-//W3C//DTD SVG 1.1//EN" "http://www.w3.org/Graphics/SVG/1.1/DTD/svg11.dtd">
<svg version="1.1" id="Layer_1" xmlns="http://www.w3.org/2000/svg" xmlns:xlink="http://www.w3.org/1999/xlink" x="0px" y="0px"
	 width="51.75px" height="52.375px" viewBox="0 0 51.75 52.375" enable-background="new 0 0 51.75 52.375" xml:space="preserve">
<path fill-rule="evenodd" clip-rule="evenodd" fill="#FFFFFF" d="M12.406,33.483c1.1-0.455,2.178-0.976,3.306-1.347
	c1.097-0.361,2.244-0.57,3.369-0.846c0.024-0.084,0.049-0.168,0.074-0.252c-0.594-0.259-1.186-0.521-1.783-0.772
	c-0.244-0.103-0.516-0.149-0.746-0.275c-1.263-0.69-2.515-1.4-3.776-2.094c-0.134-0.074-0.302-0.104-0.457-0.122
	c-1.547-0.173-2.834-0.87-3.966-1.913c-0.197-0.182-0.487-0.296-0.753-0.363c-1.816-0.459-3.186-1.473-3.922-3.22
	c-0.341-0.809-0.198-0.944,0.656-0.783c3.203,0.605,6.422,0.518,9.746,0.271c-1.387-4.859-0.52-9.196,3.043-12.798
	c2.518-2.546,5.662-3.619,9.242-3.437c6.484,0.332,13.211,7.089,10.729,15.992c2.875-0.769,5.742-0.289,8.607-0.166
	c0.613,0.025,1.229,0.025,1.842,0.007c0.936-0.029,1.209,0.292,0.898,1.18c-0.385,1.104-1.197,1.733-2.334,1.958
	c-0.182,0.036-0.463-0.002-0.533,0.104c-0.744,1.131-2.17,1.076-3.129,1.826c-0.246,0.191-0.568,0.38-0.865,0.394
	c-1.654,0.075-2.889,1.257-4.426,1.63c-0.064,0.017-0.115,0.101-0.277,0.252c0.52,0.204,0.992,0.339,1.414,0.568
	c0.449,0.244,0.855,0.567,1.266,0.878c0.162,0.122,0.256,0.339,0.424,0.449c0.998,0.661,1.137,1.023,0.742,2.408
	c-1.469,0-3.002-0.04-4.531,0.016c-0.82,0.029-1.641,0.18-2.447,0.348c-1.039,0.216-2.062,0.501-3.092,0.763
	c-0.406,0.103-0.809,0.221-1.352,0.369c0.752,0.474,1.131,0.909,0.326,1.506c-0.129,0.097-0.156,0.331-0.229,0.503
	c-0.365,0.874-0.633,0.931-1.518,0.63c-0.559-0.191-1.191-0.24-1.79-0.236c-1.654,0.009-2.161-0.59-1.818-2.219
	c0.03-0.146-0.027-0.422-0.116-0.458c-0.226-0.091-0.61-0.197-0.721-0.087c-0.382,0.379-0.791,0.804-0.979,1.292
	c-0.511,1.325-1.435,1.973-2.873,1.918c-1.004-0.039-1.879-0.287-2.783-0.812c-0.82-0.477-1.761-0.706-2.332-1.565
	c-0.09-0.136-0.402-0.104-0.589-0.197c-0.543-0.271-1.075-0.565-1.611-0.851C12.363,33.781,12.385,33.632,12.406,33.483z
	 M32.514,16.632c-0.273-0.676-0.547-1.352-0.783-1.934c-0.428,0-0.725,0.068-0.973-0.014c-0.605-0.2-0.645,0.085-0.555,0.55
	c0.232,1.186,0.232,1.189-0.883,1.804c-0.418,0.229-0.664,0.498-0.314,1.087c1.047-0.431,2.07-0.853,3.094-1.274
	c-1.039,0.618-2.08,1.236-3.186,1.894c0.023,0.133,0.07,0.387,0.094,0.511c0.492,0.244,0.885,0.438,1.279,0.633
	c-0.975,0.428-1.756,0.221-2.477-0.451c0.334-0.066,0.637-0.126,0.943-0.187c-0.24-0.573-2.002-0.476-3.605,0.177
	c0.518,1.533,1.283,0.147,1.982,0.032c-0.059,0.364-0.096,0.588-0.135,0.839c0.146,0.068,0.264,0.123,0.381,0.178
	c0.113,0.052,0.227,0.102,0.312,0.142c0.039,1.021,0.037,1.008,1.029,0.83c0.215-0.038,0.486-0.009,0.676,0.093
	c0.998,0.533,1.996,0.878,3.09,0.266c0.186-0.104,0.393-0.173,0.59-0.258c0.014,0.032,0.029,0.064,0.043,0.096
	c-0.393,0.244-0.787,0.488-1.223,0.759c1.174,0.707,1.77-0.545,2.842-0.698c-0.199,1.01-0.375,1.902-0.592,2.994
	c1.039-1.05,2.025-3.167,2.383-5.127c0.584-3.218-0.145-6.129-2.174-8.704c-1.174-1.978-5.205-4.615-6.824-3.788
	c1.496,0.657,2.988,1.312,4.479,1.967c-0.779-0.316-1.561-0.633-2.355-0.955c-0.17,0.703-0.154,0.678,0.287,0.967
	c1.043,0.683,2.07,1.393,3.104,2.092c-0.041,0.056-0.08,0.111-0.119,0.167c-0.439-0.244-0.879-0.488-1.316-0.732
	c-0.088-0.125-0.146-0.303-0.266-0.366c-1.156-0.619-2.322-1.22-3.383-1.771c-0.25,0.424-0.395,0.666-0.562,0.949
	c0.414,0.311,0.648,0.85,1.422,0.515c0.432-0.188,1.055,0.059,1.639,0.114c-0.115,0.368-0.184,0.582-0.287,0.908
	c0.432,0.024,0.793,0.045,1.152,0.065c0.035,0.093,0.049,0.207,0.111,0.275c0.764,0.837,0.621,1.37-0.396,1.622
	c0.807,1.554,1.619,3.118,2.432,4.683c-0.059,0.029-0.119,0.058-0.18,0.087C33.031,17.321,32.771,16.977,32.514,16.632z
	 M40.328,32.062c-0.014-0.668-2.836-2.762-3.66-2.69c-0.059,0.11-0.127,0.239-0.137,0.257c-1.393-0.327-2.75-0.646-3.895-0.914
	c1.15-1.251,2.412-2.477,3.496-3.845c0.98-1.239,2.168-1.849,3.707-1.854c1.877-0.005,3.754-0.001,5.631-0.001
	c0.006,0.063,0.012,0.127,0.018,0.19c-2.422,0.239-4.844,0.479-7.266,0.719c0.01,0.108,0.02,0.217,0.029,0.325
	c1.508,0,3.014,0,4.521,0c0.006,0.101,0.012,0.201,0.02,0.301c-1.82,0.156-3.639,0.312-5.459,0.468
	c0.002,0.076,0.006,0.153,0.008,0.23c1.045,0.075,2.092,0.151,3.139,0.228c0.004,0.048,0.008,0.097,0.014,0.145
	c-1.279,0.063-2.559,0.127-3.836,0.189c-0.008,0.06-0.018,0.119-0.025,0.178c0.387,0.097,0.773,0.191,1.16,0.288
	c0.006,0.034,0.014,0.067,0.02,0.102c-0.504,0.049-1.008,0.097-1.512,0.146c-0.027,0.047-0.055,0.094-0.082,0.141
	c0.135,0.072,0.271,0.145,0.506,0.269c-0.502,0.025-0.865,0.043-1.314,0.065c0.141,0.17,0.223,0.267,0.305,0.367
	c-0.201,0.033-0.4,0.066-0.6,0.1c0.25,0.196,0.545,0.332,0.766,0.255c0.949-0.331,1.877-0.722,2.811-1.097
	c0.266-0.107,0.518-0.3,0.791-0.339c1.818-0.261,3.5-0.782,4.781-2.215c0.15-0.169,0.488-0.169,0.738-0.254
	c0.576-0.197,1.172-0.358,1.721-0.615c0.264-0.123,0.441-0.432,0.658-0.656c-0.039-0.073-0.076-0.146-0.115-0.22
	c-1.357,0-2.715-0.016-4.072,0.003c-1.627,0.024-3.256,0.04-4.879,0.133c-0.906,0.052-1.639,0.491-2.256,1.213
	c-1.689,1.973-3.18,4.169-5.801,5.29c0.346,0.189,0.566,0.311,0.916,0.504c-1.381,0.083-2.326-0.467-3.033-1.389
	c-0.648-0.845-1.225-1.749-1.77-2.665c-0.855-1.435-2.028-2.304-3.746-2.354c-0.933-0.027-1.865-0.136-2.798-0.138
	c-4.086-0.012-8.172,0.016-12.258-0.007c-0.803-0.004-1.605-0.168-2.573-0.276c0.933,1.252,2.043,1.884,3.411,2.127
	c0.237,0.042,0.557,0.145,0.662,0.322c0.534,0.905,1.368,1.343,2.332,1.547c1.089,0.23,2.13,0.337,3.125,1.091
	c0.812,0.616,2.094,0.597,2.815,1.549c0.056,0.074,0.186,0.106,0.288,0.13c1.39,0.309,2.263,1.349,3.329,2.27
	c-2.511,0.382-4.86,0.931-7.195,2.143c0.284,0.122,0.388,0.212,0.465,0.192c1.621-0.394,3.238-0.8,4.856-1.203
	c0.022,0.054,0.045,0.107,0.067,0.161c-1.281,0.541-2.561,1.083-3.918,1.657c0.638,0.453,1.223,0.189,1.777,0.014
	c0.583-0.186,1.137-0.459,1.709-0.68c0.539-0.209,1.085-0.398,1.628-0.597c0.041,0.104,0.081,0.208,0.121,0.312
	c-1.392,0.59-2.784,1.181-4.153,1.762c0.714,0.464,1.522,0.267,2.249-0.123c1.32-0.707,2.592-1.504,3.873-2.256
	c-0.375-0.067-0.822-0.148-1.399-0.253c1.007-0.09,1.877-0.167,2.748-0.245c-0.003-0.064-0.007-0.129-0.01-0.193
	c-0.504-0.044-1.008-0.088-1.667-0.146c1.083-0.178,1.993-0.327,2.903-0.478c-0.005-0.077-0.01-0.153-0.015-0.23
	c-0.225-0.097-0.451-0.193-0.731-0.313c0.931,0,1.78,0,2.629,0c0.01-0.078,0.018-0.155,0.027-0.232
	c-1.038-0.143-2.075-0.285-3.112-0.427c0.007-0.04,0.014-0.079,0.02-0.118c0.763-0.042,1.526-0.084,2.29-0.126
	c0.003-0.076,0.005-0.152,0.008-0.229c-1.087-0.073-2.174-0.147-3.26-0.222c0.002-0.03,0.005-0.06,0.008-0.09
	c0.783-0.105,1.567-0.212,2.351-0.317c-0.007-0.06-0.015-0.12-0.022-0.18c-1.056-0.06-2.111-0.119-3.167-0.18
	c0.004-0.048,0.007-0.096,0.011-0.145c0.675-0.083,1.35-0.167,2.024-0.251c-0.011-0.074-0.021-0.147-0.032-0.221
	c-1.124-0.062-2.248-0.126-3.371-0.188c0.004-0.083,0.008-0.166,0.013-0.249c0.706-0.116,1.412-0.233,2.118-0.351
	c-0.008-0.048-0.016-0.096-0.024-0.144c-1.249-0.171-2.498-0.341-3.747-0.511c0.003-0.059,0.007-0.118,0.011-0.177
	c0.657-0.127,1.313-0.253,1.97-0.379c-0.006-0.029-0.012-0.059-0.019-0.087c-1.354-0.218-2.707-0.436-4.061-0.653
	c0.006-0.073,0.013-0.147,0.019-0.221c0.947-0.055,1.893-0.109,2.839-0.163c-0.003-0.101-0.006-0.201-0.01-0.301
	c-1.155-0.066-2.311-0.124-3.466-0.199c-2.238-0.146-4.478-0.268-6.71-0.472c-0.749-0.067-1.479-0.353-2.217-0.538
	c1.887-0.026,3.723,0.109,5.561,0.135c1.842,0.025,3.686-0.101,5.528-0.082c1.491,0.016,2.995,0.053,4.465,0.271
	c0.676,0.101,1.415,0.533,1.894,1.035c0.685,0.719,1.074,1.712,1.74,2.454c0.742,0.827,1.588,1.603,2.514,2.211
	c0.582,0.382,1.393,0.416,2.039,0.589c0.117,0.672,0.729,0.22,1.072,0.419c-0.152,0.111-0.295,0.216-0.607,0.443
	c0.555,0,0.902,0,1.279,0c-0.09,0.174-0.145,0.279-0.279,0.538c0.775-0.372,1.396,0.781,2.041,0.007
	c-0.209-0.541-0.391-1.016-0.629-1.636c0.578,0.184,1.107,0.352,1.629,0.517c-0.24,0.086-0.494,0.176-0.746,0.267
	c0.004,0.071,0.01,0.143,0.014,0.214c0.312,0.062,0.623,0.123,0.932,0.185c-0.008,0.585,0.062,0.618,0.941,0.601
	c0.172,0.207,0.402,0.45,0.609,0.433C38.367,32.345,39.348,32.19,40.328,32.062z M23.738,9.474c0.701-0.278,1.512-0.483,2.193-0.9
	c0.825-0.504,0.725-1.203-0.184-1.497c-1.295-0.419-2.544-0.185-3.657,0.587c-0.504,0.35-0.46,0.933,0.092,1.241
	C22.612,9.145,23.116,9.253,23.738,9.474z M24.413,21.284c0.071,0.001,0.143,0.002,0.215,0.003c-0.115,0.158-0.23,0.315-0.434,0.593
	c0.499-0.103,0.852-0.174,1.205-0.246c0.054,0.075,0.108,0.151,0.163,0.227c-0.298,0.2-0.596,0.4-0.894,0.602
	c0.033,0.045,0.067,0.091,0.1,0.137c0.375-0.147,0.75-0.295,1.256-0.494c-0.268,0.372-0.445,0.618-0.623,0.863
	c0.042,0.036,0.084,0.072,0.126,0.108c0.535-0.259,1.07-0.517,1.761-0.852c-0.395,0.54-0.674,0.921-0.952,1.301
	c0.037,0.035,0.073,0.071,0.11,0.106c0.5-0.279,0.998-0.559,1.498-0.837c0.016,0.036,0.031,0.072,0.047,0.107
	c-0.381,0.489-0.764,0.977-1.146,1.465c1.055-0.152,2.27-1.646,2.168-2.447c-0.197,0.027-0.414,0.122-0.586,0.07
	c-0.494-0.149-1.15-0.224-1.41-0.573c-0.477-0.647-0.949-1.032-1.707-0.927c-0.318,0.044-0.648,0.007-1.094,0.007
	C24.282,20.759,24.347,21.021,24.413,21.284z M18.319,13.639c-0.449,0.954-0.954,1.909-1.342,2.91
	c-0.156,0.402-0.007,0.874,0.509,1.076c0.509,0.2,1.012,0.416,1.627,0.67C19.23,16.622,20.243,15.005,18.319,13.639z M21.924,22.143
	c1.452-0.156,1.957-1.023,1.538-2.195c-0.241-0.677-0.702-0.211-1.044-0.3c-0.862-0.226-1.745-0.367-2.853-0.589
	c0.194,0.452,0.306,0.715,0.39,0.91c-0.091,0.229-0.181,0.453-0.313,0.785c0.578-0.192,0.989-0.329,1.549-0.516
	c-1.321,1.116-1.321,1.116-1.267,1.454c0.585-0.284,1.167-0.566,1.75-0.85c0.028,0.054,0.057,0.106,0.085,0.159
	c-0.384,0.336-0.769,0.671-1.153,1.006c0.041,0.061,0.081,0.12,0.121,0.181c0.359-0.195,0.717-0.39,1.076-0.586
	c0.379-0.208,0.758-0.417,1.137-0.625c0.027,0.048,0.054,0.095,0.081,0.143C22.694,21.425,22.367,21.729,21.924,22.143z
	 M17.135,12.07c-0.56,0.983-1.123,1.853-1.562,2.78c-0.424,0.896-0.199,1.358,0.684,1.842c0.562-1.251,1.125-2.503,1.693-3.766
	C17.738,12.704,17.52,12.475,17.135,12.07z M17.414,18.945c-1.243,0.915-1.243,0.915-1.153,1.417c0.567-0.269,1.127-0.534,1.688-0.8
	c0.032,0.06,0.063,0.119,0.095,0.178c-0.369,0.229-0.722,0.49-1.109,0.682c-0.779,0.388-0.787,0.372-0.563,1.024
	c0.855-0.516,1.715-0.979,2.511-1.534c0.438-0.306,0.263-0.951-0.253-1.188c-0.338-0.155-0.672-0.317-1.013-0.466
	c-0.662-0.288-1.333,0.206-1.322,1.002C16.672,19.153,17.043,19.05,17.414,18.945z M15.212,16.309
	c-0.087,0.004-0.175,0.007-0.263,0.011c-0.025,1.398-0.082,2.797-0.063,4.195c0.008,0.641,0.37,1.107,1.05,1.341
	c-0.083-1.13-0.161-2.177-0.248-3.345C16.376,18.039,16.314,17.476,15.212,16.309z M17.198,10.924
	c-2.051,1.577-3.363,5.423-2.616,8.077c0.036-0.3,0.06-0.478,0.077-0.656c0.098-1.006,0.017-2.074,0.337-3.003
	c0.369-1.069,1.113-2.006,1.654-3.021C16.885,11.882,17.019,11.391,17.198,10.924z M21.181,8.067
	c-0.107-0.125-0.215-0.25-0.323-0.375c-1.086,0.783-2.204,1.53-3.238,2.377c-0.268,0.22-0.276,0.757-0.403,1.147
	c0.068,0.007,0.135,0.014,0.203,0.021C18.674,10.182,19.928,9.124,21.181,8.067z M28.188,10.884
	c-0.574-0.459-1.113-0.953-1.716-1.35c-0.347-0.229-0.527,0.013-0.5,0.407c0.017,0.24-0.014,0.483-0.009,0.725
	c0.004,0.204-0.049,0.51,0.059,0.589c0.278,0.207,0.667,0.479,0.946,0.42C27.354,11.592,27.682,11.23,28.188,10.884z M21.66,18.755
	c-0.408-1.002-0.805-1.978-1.315-3.231c-0.189,1.053-0.343,1.911-0.497,2.77c0.597,0.156,1.194,0.313,1.792,0.468
	C21.661,18.766,21.689,18.745,21.66,18.755z M25.211,18.771c0.932-0.153,1.761-0.281,2.585-0.437
	c0.127-0.023,0.311-0.161,0.322-0.262c0.014-0.124-0.104-0.354-0.205-0.381c-0.312-0.082-0.646-0.125-0.971-0.113
	c-0.25,0.008-0.497,0.178-0.745,0.175C25.608,17.744,25.331,18.036,25.211,18.771z M16.039,21.829
	c0.433,0.073,0.75,0.229,0.98,0.146c0.563-0.205,1.098-0.501,1.62-0.802c0.182-0.104,0.293-0.332,0.436-0.503
	c-0.235,0.002-0.501-0.068-0.7,0.018C17.683,20.989,17.015,21.346,16.039,21.829z M18.108,36.076
	c1.611,0.167,2.803-0.527,3.138-1.755C20.231,34.889,19.214,35.457,18.108,36.076z M18.434,12.617
	c0.261-0.736,0.465-1.312,0.669-1.889c-0.056-0.032-0.112-0.065-0.169-0.099c-0.456,0.381-0.911,0.761-1.438,1.201
	C17.809,12.095,18.023,12.273,18.434,12.617z M26.898,35.463c0.459-0.28,0.805-0.44,1.082-0.678
	c0.242-0.205,0.406-0.498,0.605-0.753c-0.281-0.214-0.561-0.428-0.842-0.642c-0.072,0.038-0.145,0.076-0.217,0.114
	C28.254,34.442,27.168,34.732,26.898,35.463z M30.658,25.47c-0.967,0.496-1.781,0.914-2.67,1.37
	C28.791,27.142,29.977,26.523,30.658,25.47z M21.926,17.087c-0.191,1.133,0.352,1.772,1.233,1.594
	C22.76,18.164,22.399,17.698,21.926,17.087z M29.758,25.245c-0.062-0.081-0.123-0.163-0.186-0.244
	c-0.537,0.271-1.082,0.531-1.607,0.823c-0.094,0.053-0.111,0.239-0.164,0.363c0.113,0.026,0.264,0.113,0.336,0.07
	C28.686,25.935,29.221,25.586,29.758,25.245z M27.168,25.195c0.781,0.353,1.961-0.342,2.113-1.134
	C28.605,24.425,27.938,24.782,27.168,25.195z M27.332,36.306c0.039,0.108,0.078,0.217,0.117,0.325
	c0.262-0.108,0.525-0.217,0.795-0.328c0.1,0.146,0.201,0.294,0.344,0.504c0.211-0.418,0.375-0.745,0.539-1.072
	c-0.045-0.062-0.092-0.126-0.137-0.188C28.438,35.799,27.885,36.052,27.332,36.306z M21.736,35.205
	c-0.682,0.42-1.379,0.85-2.047,1.262C20.644,36.741,21.278,36.354,21.736,35.205z M24.991,34.814
	c-0.055-0.021-0.109-0.043-0.164-0.064c0.042,0.425-0.035,0.919,0.162,1.251c0.156,0.264,0.648,0.326,0.978,0.473
	C25.602,35.853,25.296,35.334,24.991,34.814z M28.518,27.596c0.711,0.276,1.51-0.114,2.064-0.978
	C29.869,26.955,29.227,27.26,28.518,27.596z"/>
<path fill-rule="evenodd" clip-rule="evenodd" fill="#FFFFFF" d="M32.984,39.142c0.732,0,1.422-0.007,2.111,0.001
	c0.656,0.008,1.17,0.253,1.266,0.963c0.09,0.679-0.309,1.033-0.926,1.153c0.455,0.613,0.9,1.212,1.348,1.814
	c-1.459,0.666-1.547-0.796-2.369-1.611c0.051,0.712,0.082,1.188,0.119,1.699c-0.404,0-0.953,0-1.523,0
	C33.518,42.527,33.516,39.807,32.984,39.142z M34.484,41.225c0.646-0.062,0.826-0.421,0.799-0.928
	c-0.027-0.452-0.145-0.845-0.799-0.779C34.484,40.06,34.484,40.598,34.484,41.225z"/>
<path fill-rule="evenodd" clip-rule="evenodd" fill="#FFFFFF" d="M20.484,43.338c-1.303-0.526-1.585-2.047-2.729-2.982
	c0.115,0.994-0.347,1.915,0.371,2.785c-0.342,0-0.713,0-0.945,0c0.05-0.638,0.179-1.301,0.132-1.952
	c-0.047-0.654,0.396-1.447-0.475-1.969c0.863-0.199,1.547-0.175,2.029,0.695c0.353,0.636,0.848,1.191,1.38,1.743
	c-0.086-0.829,0.524-1.735-0.356-2.476c0.361,0,0.737,0,0.942,0c0,1.332,0,2.666,0,3.999C20.717,43.234,20.601,43.286,20.484,43.338
	z"/>
<path fill-rule="evenodd" clip-rule="evenodd" fill="#FFFFFF" d="M40.064,39.139c0,0.294,0,0.604,0,0.762
	c-0.402-0.146-0.793-0.331-1.205-0.412c-0.131-0.026-0.406,0.199-0.449,0.355c-0.041,0.152,0.08,0.423,0.217,0.535
	c0.244,0.199,0.551,0.322,0.834,0.469c0.65,0.337,1.107,0.817,0.889,1.595c-0.225,0.805-0.904,0.887-1.613,0.837
	c-0.41-0.029-0.82-0.063-1.26-0.098c0-0.317,0-0.663,0-1.009c0.303,0.67,0.803,0.854,1.434,0.704
	c0.201-0.048,0.479-0.219,0.516-0.38c0.039-0.17-0.119-0.462-0.281-0.582c-0.314-0.238-0.703-0.377-1.041-0.589
	c-0.561-0.35-0.807-0.855-0.6-1.505c0.221-0.693,0.803-0.792,1.42-0.777C39.281,39.053,39.637,39.102,40.064,39.139z"/>
<path fill-rule="evenodd" clip-rule="evenodd" fill="#FFFFFF" d="M31.484,40.646c0,0.321,0,0.628,0,0.919
	c-0.289-0.105-0.541-0.198-0.795-0.291c-0.057,0.482-0.113,0.965-0.18,1.516c0.537,0,0.949,0,1.414,0
	c0.047-0.203,0.1-0.422,0.15-0.64c0.061-0.003,0.121-0.006,0.182-0.009c0.035,0.304,0.07,0.607,0.115,0.996
	c-1.082,0-2.102,0-3.129,0c0.365-0.672,0.365-3.268-0.021-3.96c0.992,0,1.961,0,2.98,0c0,0.302,0,0.579,0,0.702
	c-0.459-0.158-0.955-0.328-1.709-0.587c0.098,0.734,0.156,1.178,0.217,1.621C30.945,40.832,31.182,40.751,31.484,40.646z"/>
<path fill-rule="evenodd" clip-rule="evenodd" fill="#FFFFFF" d="M15.115,39.16c0.313,0,0.627,0,0.767,0
	c0,0.791-0.007,1.555,0.002,2.319c0.008,0.633,0.013,1.396-0.67,1.564c-0.703,0.174-1.517,0.106-2.23-0.067
	c-0.271-0.066-0.501-0.707-0.566-1.116c-0.095-0.599-0.01-1.226-0.031-1.839c-0.009-0.274-0.089-0.546-0.142-0.847
	c0.461,0,1.011,0,1.492,0c-0.095,0.249-0.257,0.492-0.272,0.743c-0.037,0.64-0.018,1.282-0.004,1.924
	c0.014,0.655,0.306,1.062,1.016,1.069c0.666,0.007,0.983-0.348,1.004-0.983c0.022-0.667,0.05-1.337,0.009-2.001
	C15.475,39.687,15.268,39.459,15.115,39.16z"/>
<path fill-rule="evenodd" clip-rule="evenodd" fill="#FFFFFF" d="M3.75,39.178c0.987,0,1.964,0,2.976,0c0,0.315,0,0.586,0,0.799
	c-0.301-0.172-0.56-0.397-0.854-0.462c-0.21-0.047-0.637,0.078-0.671,0.206c-0.092,0.344-0.025,0.729-0.021,1.099
	c0.253-0.036,0.506-0.072,0.813-0.116c0,0.219,0,0.541,0,0.858c-0.248-0.089-0.502-0.18-0.755-0.271
	c-0.045,0.483-0.09,0.967-0.141,1.507c0.518,0,0.905,0,1.325,0c0.074-0.212,0.148-0.425,0.223-0.638
	c0.062,0.001,0.123,0.003,0.184,0.005c0.014,0.306,0.028,0.612,0.045,0.983c-1.092,0-2.119,0-3.152,0
	C4.183,42.576,4.207,39.728,3.75,39.178z"/>
<path fill-rule="evenodd" clip-rule="evenodd" fill="#FFFFFF" d="M44.934,43.177c-0.568,0-1.096,0-1.484,0
	c-0.076-0.396-0.076-0.973-0.211-1.006c-0.469-0.117-1.002-0.113-1.475-0.003c-0.133,0.031-0.143,0.587-0.229,0.99
	c-0.146,0-0.48,0-0.701,0c0.301-0.709,0.613-1.438,0.918-2.171c0.213-0.518,0.396-1.048,0.631-1.556
	c0.076-0.166,0.285-0.407,0.398-0.391c0.188,0.027,0.428,0.205,0.502,0.38c0.398,0.932,0.742,1.886,1.127,2.823
	C44.535,42.547,44.73,42.82,44.934,43.177z M43.154,41.717c-0.217-0.533-0.402-0.983-0.678-1.654
	c-0.24,0.704-0.395,1.153-0.566,1.654C42.373,41.717,42.703,41.717,43.154,41.717z"/>
<path fill-rule="evenodd" clip-rule="evenodd" fill="#FFFFFF" d="M27.504,39.173c0.381,0,0.688,0,0.875,0
	c-0.441,1.121-0.867,2.254-1.336,3.368c-0.119,0.283-0.375,0.51-0.568,0.763c-0.215-0.256-0.501-0.48-0.631-0.774
	c-0.366-0.825-0.658-1.683-1-2.519c-0.114-0.279-0.294-0.531-0.464-0.832c0.586,0,1.178,0,1.592,0
	c-0.313,1.095,0.525,1.883,0.703,2.899C27.424,41.084,27.822,39.701,27.504,39.173z"/>
<path fill-rule="evenodd" clip-rule="evenodd" fill="#FFFFFF" d="M48.207,42.771c0.053-0.213,0.104-0.41,0.154-0.608
	c0.059-0.002,0.119-0.004,0.18-0.007c0.021,0.306,0.043,0.61,0.07,0.987c-1.006,0-1.953,0-2.836,0c0-1.305,0-2.609,0-3.963
	c0.414,0,0.93,0,1.373,0c-0.434,1.147-0.082,2.346-0.221,3.591C47.395,42.771,47.799,42.771,48.207,42.771z"/>
<path fill-rule="evenodd" clip-rule="evenodd" fill="#FFFFFF" d="M7.644,39.16c0.477,0,1.058,0,1.559,0
	c-0.674,1.156-0.183,2.406-0.324,3.656c0.693,0.026,1.355,0.295,1.589-0.646c0,0.304,0,0.607,0,0.978c-0.958,0-1.931,0-2.815,0
	C7.928,41.829,7.923,40.508,7.644,39.16z"/>
<path fill-rule="evenodd" clip-rule="evenodd" fill="#FFFFFF" d="M21.786,39.163c0.609,0,1.187,0,1.778,0
	c-0.497,0.618-0.462,3.434,0.08,4.006c-0.275,0.014-0.51,0.032-0.744,0.036c-0.367,0.006-0.734,0.001-1.181,0.001
	C22.335,42.59,22.346,39.739,21.786,39.163z"/>
<path fill-rule="evenodd" clip-rule="evenodd" fill="#FFFFFF" d="M9.852,25.146c1.711,0.118,3.245,0.195,4.769,0.353
	c0.344,0.036,0.64,0.409,0.992,0.522c0.671,0.215,1.366,0.354,2.039,0.581C15.063,26.308,12.333,26.76,9.852,25.146z"/>
<path fill-rule="evenodd" clip-rule="evenodd" fill="#FFFFFF" d="M14.726,26.928c1.547,0.194,3.094,0.389,4.641,0.583
	c-0.011,0.085-0.021,0.171-0.032,0.257c-1.586,0.109-3.175,0.248-4.643-0.546C14.703,27.124,14.715,27.025,14.726,26.928z"/>
<path fill-rule="evenodd" clip-rule="evenodd" fill="#FFFFFF" d="M17.044,28.233c1.396,0.151,2.589,0.28,3.782,0.409
	C19.835,29.285,17.932,29.051,17.044,28.233z"/>
<path fill-rule="evenodd" clip-rule="evenodd" fill="#FFFFFF" d="M20.752,30.465c0.728,0.273,1.523-0.497,2.408,0.287
	c-0.932,0-1.679,0-2.425,0C20.74,30.657,20.746,30.561,20.752,30.465z"/>
<path fill-rule="evenodd" clip-rule="evenodd" fill="#FFFFFF" d="M19.583,29.627c0.816,0,1.631,0,2.447,0
	c-0.005,0.122-0.01,0.243-0.015,0.364c-0.817-0.054-1.633-0.108-2.45-0.162C19.571,29.762,19.577,29.694,19.583,29.627z"/>
<path fill-rule="evenodd" clip-rule="evenodd" fill="#FFFFFF" d="M21.83,31.307c0.62,0,1.24,0,1.86,0
	c-0.001,0.065-0.001,0.132-0.002,0.198c-0.614,0-1.228,0-1.841,0C21.84,31.438,21.835,31.372,21.83,31.307z"/>
<path fill-rule="evenodd" clip-rule="evenodd" fill="#FFFFFF" d="M38.506,30.965c-0.785,0.808-1.064,0.11-1.412-0.339
	C37.529,30.73,37.963,30.835,38.506,30.965z"/>
</svg>
