<?xml version="1.0" encoding="utf-8"?>
<!-- Generator: Adobe Illustrator 16.0.0, SVG Export Plug-In . SVG Version: 6.00 Build 0)  -->
<!DOCTYPE svg PUBLIC "-//W3C//DTD SVG 1.1//EN" "http://www.w3.org/Graphics/SVG/1.1/DTD/svg11.dtd">
<svg version="1.1" id="Layer_1" xmlns="http://www.w3.org/2000/svg" xmlns:xlink="http://www.w3.org/1999/xlink" x="0px" y="0px"
	 width="138.5px" height="47px" viewBox="0 0 138.5 47" enable-background="new 0 0 138.5 47" xml:space="preserve">
<path fill-rule="evenodd" clip-rule="evenodd" fill="#FFFFFF" d="M96.623,26.045c2.816,3.584,5.05,7.468,5.034,12.549
	c-0.9,0.046-1.765,0.09-2.828,0.146c-0.569-4.211-1.696-8.063-5.192-11.464c0,4.056,0,7.603,0,11.317c-1.178,0-2.059,0-3.159,0
	c0-10.906,0-21.833,0-32.744c4.628-0.998,8.654,0.436,10.407,3.657C103.683,14.651,102.217,20.461,96.623,26.045z M93.74,25.312
	c0.679-0.473,1.097-0.701,1.438-1.014c3.412-3.128,4.746-10.815,2.347-14.751c-0.719-1.178-2.169-1.91-3.785-3.266
	C93.74,13.137,93.74,19.039,93.74,25.312z"/>
<path fill-rule="evenodd" clip-rule="evenodd" fill="#FFFFFF" d="M133.781,22.104c-0.581,3.877-0.874,7.927-1.905,11.781
	c-0.481,1.798-2.087,3.77-3.728,4.674c-2.619,1.445-5.712,0.144-6.82-2.826c-1.129-3.024-2.026-6.306-2.125-9.503
	c-0.146-4.754,0.494-9.532,0.818-14.299c0.028-0.413,0.176-0.821,0.297-1.222c1.08-3.614,3.236-5.684,5.911-5.688
	c2.698-0.004,4.991,1.954,5.835,5.708C132.888,14.392,133.209,18.167,133.781,22.104z M130.171,21.85
	c-0.347-3.824-0.638-7.835-1.107-11.824c-0.188-1.6-0.772-3.328-2.766-3.372c-2.011-0.043-2.737,1.626-2.813,3.261
	c-0.312,6.677-0.564,13.36-0.623,20.043c-0.018,1.965,0.509,3.992,1.129,5.878c0.245,0.747,1.413,1.622,2.182,1.644
	c0.765,0.021,1.723-0.826,2.284-1.538c0.478-0.609,0.642-1.554,0.72-2.37C129.544,29.738,129.835,25.897,130.171,21.85z"/>
<path fill-rule="evenodd" clip-rule="evenodd" fill="#FFFFFF" d="M44.914,22.185c0.797-4.405,1.388-8.632,2.373-12.766
	c0.606-2.544,2.482-4.191,5.243-4.374c2.369-0.156,4.476,1.487,5.527,4.381C60.083,15,60.123,20.809,59.599,26.6
	c-0.262,2.894-0.903,5.799-1.757,8.58c-0.706,2.299-2.424,3.747-5.08,3.785c-2.759,0.042-4.698-1.381-5.323-3.799
	C46.334,30.895,45.725,26.496,44.914,22.185z M56.72,22.173c-0.453-4.246-0.854-8.407-1.361-12.553
	c-0.196-1.609-1.059-3.233-2.803-2.854C51.5,6.995,50.149,8.49,49.947,9.603c-1.516,8.309-1.476,16.667-0.051,24.999
	c0.266,1.558,1.058,3.246,2.832,2.844c1.038-0.235,2.338-1.742,2.529-2.849C55.968,30.486,56.268,26.307,56.72,22.173z"/>
<path fill-rule="evenodd" clip-rule="evenodd" fill="#FFFFFF" d="M104.893,38.566c0-11.057,0-21.956,0-32.835
	c5.426-0.869,9.27,1.295,10.823,6.366c2.017,6.587,2.045,13.284,0.046,19.877C114.188,37.167,110.725,39.188,104.893,38.566z
	 M108.767,6.787c-0.233,0.16-0.466,0.321-0.699,0.481c0,9.93,0,19.861,0,29.792c0.226,0.138,0.453,0.276,0.68,0.414
	c1.027-1.184,2.536-2.203,3.001-3.577c2.671-7.866,2.708-15.834-0.075-23.685C111.207,8.893,109.761,7.92,108.767,6.787z"/>
<path fill-rule="evenodd" clip-rule="evenodd" fill="#FFFFFF" d="M15.08,37.728c0-4.299,0.231-8.421-0.138-12.489
	c-0.113-1.245-1.871-2.34-2.745-3.352c2.453-0.834,5.197,0.097,5.636,3.001c0.623,4.112,0.509,8.344,0.559,12.525
	c0.004,0.417-0.974,1.062-1.598,1.235c-4.169,1.16-8.264-0.536-9.804-4.556C3.934,26.113,3.963,17.952,6.926,9.956
	c1.491-4.023,4.962-5.407,9.363-4.294c0,1.2,0,2.428,0,3.657c-0.246,0.099-0.491,0.198-0.736,0.298
	c-0.448-1.042-0.895-2.083-1.387-3.227c-2.181,0.11-3.113,1.74-3.812,3.438C8.01,15.516,7.977,21.485,8.706,27.444
	c0.311,2.538,1.12,5.063,2.047,7.461C11.388,36.546,12.69,37.85,15.08,37.728z"/>
<path fill-rule="evenodd" clip-rule="evenodd" fill="#FFFFFF" d="M20.411,38.424c0.482-2.958,0.952-5.919,1.449-8.873
	c1.24-7.369,2.477-14.739,3.767-22.1c0.127-0.726,0.622-1.388,0.944-2.079c0.46,0.682,1.18,1.307,1.342,2.053
	c2.244,10.333,4.41,20.684,6.63,31.188c-1.024,0-1.992,0-3.217,0c-0.355-1.602-0.862-3.279-1.077-4.992
	c-0.375-2.984-2.619-1.568-4.108-1.842c-1.526-0.279-2.608,0.162-2.688,2.018c-0.051,1.168-0.177,2.39-0.594,3.459
	c-0.27,0.696-1.126,1.163-1.719,1.733C20.897,38.8,20.654,38.611,20.411,38.424z M26.948,16.666
	c-0.195,0.005-0.391,0.01-0.586,0.015c-0.711,4.277-1.422,8.555-2.145,12.906c1.979,0,3.542,0,5.275,0
	C28.622,25.166,27.785,20.916,26.948,16.666z"/>
<path fill-rule="evenodd" clip-rule="evenodd" fill="#FFFFFF" d="M85.256,38.589c-0.365-1.753-0.577-3.519-1.151-5.157
	c-0.243-0.693-1.211-1.538-1.914-1.601c-4.467-0.401-4.478-0.336-5.169,4.373c-0.203,1.378-0.156,2.983-2.664,2.322
	c0.832-5.024,1.637-9.97,2.47-14.911c0.894-5.299,1.78-10.6,2.756-15.884c0.154-0.836,0.765-1.588,1.165-2.379
	c0.404,0.753,1.009,1.464,1.183,2.267c2.215,10.257,4.367,20.527,6.572,30.969C87.503,38.589,86.545,38.589,85.256,38.589z
	 M83.456,29.555c-0.864-4.334-1.699-8.52-2.627-13.177c-0.407,0.697-0.59,0.882-0.625,1.093c-0.683,3.961-1.346,7.926-2.047,12.084
	C79.946,29.555,81.576,29.555,83.456,29.555z"/>
<path fill-rule="evenodd" clip-rule="evenodd" fill="#FFFFFF" d="M62.972,5.243c2.15,0.273,4.074,0.371,5.925,0.788
	c2.363,0.533,3.964,2.118,4.867,4.359c2.43,6.035-0.114,13.02-5.952,15.907c-1.439,0.712-1.93,1.482-1.865,3.039
	c0.124,3.006,0.036,6.021,0.036,9.279c-1.055,0.055-1.923,0.1-3.01,0.155C62.972,27.65,62.972,16.703,62.972,5.243z M66.126,25.243
	c5.263-2.74,6.206-12.017,3.544-16.193c-0.649-1.018-2.059-1.55-3.544-2.609C66.126,13.162,66.126,19.058,66.126,25.243z"/>
<path fill-rule="evenodd" clip-rule="evenodd" fill="#FFFFFF" d="M45.525,5.604c-0.068,1.437-0.068,1.437-4.935,2.219
	c0,10.143,0,20.34,0,30.738c-1.228,0-2.166,0-3.329,0c0-10.252,0-20.463,0-30.375c-1.46-1.751-4.551,0.919-5.138-2.582
	C36.646,5.604,40.977,5.604,45.525,5.604z"/>
</svg>
