<?xml version="1.0" encoding="utf-8"?>
<!-- Generator: Adobe Illustrator 16.0.0, SVG Export Plug-In . SVG Version: 6.00 Build 0)  -->
<!DOCTYPE svg PUBLIC "-//W3C//DTD SVG 1.1//EN" "http://www.w3.org/Graphics/SVG/1.1/DTD/svg11.dtd">
<svg version="1.1" id="Layer_1" xmlns="http://www.w3.org/2000/svg" xmlns:xlink="http://www.w3.org/1999/xlink" x="0px" y="0px"
	 width="51.75px" height="52.375px" viewBox="0 0 51.75 52.375" enable-background="new 0 0 51.75 52.375" xml:space="preserve">
<path fill-rule="evenodd" clip-rule="evenodd" fill="#FFFFFF" d="M26.104,50.833C12.424,50.826,1.375,39.815,1.251,26.215
	c-0.125-13.833,11-25.041,24.748-25.09c13.775-0.05,24.696,10.98,24.956,24.35C51.225,39.438,39.994,50.833,26.104,50.833z
	 M17.346,38.046c-0.296-0.082-0.543-0.163-0.796-0.219c-0.387-0.085-0.786-0.127-1.165-0.237c-0.628-0.183-0.873-0.527-0.898-1.182
	c-0.005-0.141-0.006-0.284,0.009-0.423c0.105-0.929,0.208-1.859,0.326-2.787c0.234-1.839,0.476-3.677,0.715-5.514
	c0.235-1.803,0.465-3.606,0.711-5.408c0.035-0.255,0.145-0.499,0.242-0.825c0.189,0.333,0.349,0.586,0.48,0.853
	c2.427,4.93,4.844,9.866,7.286,14.789c0.224,0.451,0.603,0.826,0.952,1.293c0.33-0.454,0.666-0.801,0.867-1.213
	c1.58-3.232,3.131-6.479,4.697-9.719c0.975-2.017,1.958-4.03,2.944-6.042c0.034-0.069,0.152-0.167,0.189-0.152
	c0.077,0.032,0.167,0.125,0.179,0.204c0.184,1.275,0.355,2.553,0.531,3.83c0.385,2.807,0.785,5.611,1.149,8.42
	c0.112,0.865,0.163,1.742,0.179,2.614c0.013,0.724-0.363,1.165-1.056,1.376c-0.185,0.057-0.381,0.075-0.567,0.128
	c-0.256,0.073-0.507,0.161-0.761,0.243c0.002,0.036,0.003,0.072,0.005,0.108c0.359,0.07,0.717,0.191,1.078,0.2
	c1.218,0.03,2.438,0.026,3.657,0.026c1.688-0.001,3.375-0.013,5.062-0.015c0.304,0,0.574-0.058,0.804-0.37
	c-0.271-0.084-0.514-0.185-0.767-0.234c-0.381-0.074-0.768-0.115-1.153-0.167c-1.005-0.137-1.618-0.695-1.844-1.671
	c-0.691-2.979-1.012-6.021-1.482-9.037c-0.342-2.197-0.652-4.4-0.979-6.599c-0.361-2.427-0.734-4.852-1.079-7.281
	c-0.062-0.441-0.269-0.768-0.547-1.078c-0.366,0.204-0.663,0.453-0.825,0.84c-0.082,0.195-0.193,0.377-0.285,0.568
	c-1.43,2.992-2.861,5.983-4.288,8.977c-1.427,2.993-2.85,5.988-4.279,8.98c-0.11,0.231-0.257,0.445-0.405,0.698
	c-0.139-0.229-0.264-0.403-0.356-0.592c-0.665-1.364-1.32-2.732-1.984-4.096c-2.37-4.869-4.745-9.736-7.108-14.609
	c-0.178-0.366-0.459-0.585-0.792-0.775c-0.306,0.322-0.524,0.665-0.588,1.11c-0.17,1.179-0.37,2.354-0.549,3.532
	c-0.398,2.626-0.792,5.253-1.187,7.88c-0.437,2.897-0.866,5.795-1.315,8.69c-0.169,1.089-0.365,2.175-0.585,3.256
	c-0.157,0.772-0.66,1.228-1.446,1.347c-0.244,0.037-0.499,0.018-0.735,0.077c-0.134,0.034-0.241,0.174-0.36,0.266
	c0.106,0.087,0.2,0.214,0.321,0.252c0.163,0.052,0.349,0.048,0.524,0.048c1.959-0.003,3.918-0.012,5.877-0.015
	C16.413,38.39,16.889,38.449,17.346,38.046z"/>
</svg>
