<svg version="1.1" xmlns="http://www.w3.org/2000/svg" x="0" y="0" width="36" height="36" viewBox="0 0 36 36" enable-background="new 0 0 36 36" xml:space="preserve"><path fill="#FFFFFF" d="M23.5 21.7L23.5 33.1l7.3 0h0c0.9 0 1.7-0.7 1.7-1.7l0.1-26.1c0-0.9-0.7-1.7-1.7-1.7L4.7 3.5H4.7c-0.9 0-1.7 0.8-1.7 1.7L2.9 31.3c0 0.9 0.7 1.7 1.7 1.7l14.2 0.1 0.1-11.4 -4 0 0-4.6 4 0 0-3.4c0-3.9 2.4-6.1 5.9-6.1h0c1.7 0 3.1 0.1 3.6 0.2l0 4.1 -2.4 0h0c-1.9 0-2.3 0.9-2.3 2.2l0 2.9 4.6 0 -0.6 4.6L23.5 21.7M31.2 36c0 0-11.9-0.1-12.5-0.1L4.1 35.8c-1.1 0-2.1-0.4-2.9-1.2C0.4 33.9 0 32.8 0 31.7L0.1 4.6c0-2.2 1.9-4.1 4.1-4.1H4.3l27.2 0.1c2.3 0 4.1 1.9 4.1 4.1l-0.1 27.2C35.4 34.2 33.5 36 31.2 36"/></svg>