<svg version="1.1" xmlns="http://www.w3.org/2000/svg" x="0" y="0" width="49.2" height="36" viewBox="0 0 49.2 36" enable-background="new 0 0 49.218 36" xml:space="preserve"><path fill="#FFFFFF" d="M21.3 13.5l0 8.1 7.7-4L21.3 13.5M19.8 25.5c-0.3 0-0.5-0.1-0.8-0.2 -0.5-0.3-0.7-0.8-0.7-1.3l0-13.1c0-0.5 0.3-1 0.7-1.3 0.2-0.1 0.5-0.2 0.8-0.2 0.2 0 0.5 0.1 0.7 0.2l12.5 6.6c0.5 0.3 0.8 0.8 0.8 1.3 0 0.6-0.3 1.1-0.8 1.3l-12.5 6.5C20.3 25.5 20.1 25.5 19.8 25.5M24.6 3.1c-0.1 0-9.7 0-16.1 0.5L8.3 3.6C7.4 3.7 6.1 3.9 4.9 5.1 4.1 5.9 3.6 8 3.5 8.9c0 0-0.4 3.7-0.4 7.3v3.5c0 3.6 0.4 7.3 0.5 7.3 0.1 1 0.7 3 1.4 3.7 1.1 1.2 2.5 1.3 3.6 1.5 0.3 0 0.5 0.1 0.7 0.1 3.4 0.3 15.1 0.4 15.4 0.4 0.3 0 9.8 0 16.1-0.5l0.3 0c0.9-0.1 2.2-0.2 3.4-1.5 0.8-0.8 1.3-2.9 1.4-3.8 0 0 0.4-3.7 0.4-7.3v-3.5c0-3.6-0.4-7.3-0.4-7.3 -0.1-1-0.7-3-1.4-3.7 -1.2-1.3-2.5-1.4-3.4-1.5l-0.3 0C34.3 3.1 24.7 3.1 24.6 3.1M24.6 35.9h0c-0.5 0-12.1-0.1-15.8-0.5 -0.3 0-0.5-0.1-0.7-0.1 -1.2-0.2-3.5-0.4-5.4-2.4 -1.7-1.7-2.2-5.1-2.2-5.4C0.5 27.3 0 23.6 0 19.8v-3.5c0-3.8 0.5-7.6 0.5-7.7C0.5 8.1 1 4.7 2.7 3c2-2.1 4.2-2.3 5.3-2.4l0.3 0c6.5-0.5 16.2-0.5 16.3-0.5 0.1 0 9.9 0 16.3 0.5l0.3 0c1.1 0.1 3.3 0.3 5.3 2.4 1.7 1.7 2.2 5.1 2.2 5.4 0 0.2 0.5 3.9 0.5 7.7v3.5c0 3.8-0.4 7.6-0.5 7.7 -0.1 0.4-0.6 3.8-2.3 5.5 -1.9 2.1-4.2 2.3-5.3 2.4l-0.3 0C34.4 35.9 24.7 35.9 24.6 35.9"/></svg>